<?xml version="1.0" encoding="utf-8"?>
<!-- Generator: Adobe Illustrator 27.0.0, SVG Export Plug-In . SVG Version: 6.00 Build 0)  -->
<svg version="1.1" id="Layer_1" xmlns="http://www.w3.org/2000/svg" xmlns:xlink="http://www.w3.org/1999/xlink" x="0px" y="0px"
	 viewBox="0 0 859.6 202.4" style="enable-background:new 0 0 859.6 202.4;" xml:space="preserve">
<style type="text/css">
	.st0{fill:#FFFFFF;}
	.st1{fill:url(#SVGID_1_);}
	.st2{fill:url(#SVGID_00000129196825248243998950000001072650349634176401_);}
	.st3{fill:url(#SVGID_00000037674172913260672220000002291144302079205004_);}
	.st4{fill:url(#SVGID_00000055670076551589074630000017794391482436687547_);}
	.st5{fill:url(#SVGID_00000170277916675639095630000000619632433013269646_);}
	.st6{fill:url(#SVGID_00000118376721273538518070000006255965031214235068_);}
	.st7{fill:url(#SVGID_00000075874021616468085730000004956970203600142501_);}
	.st8{fill:url(#SVGID_00000044141584380957256890000012143121354752550276_);}
	.st9{fill:url(#SVGID_00000022553964138438340690000002068207376381666725_);}
</style>
<g>
	<g>
		<path class="st0" d="M67.2,43.5h29.1l0.8,0.8v130.5l-0.8,0.8H70.7l-0.8-0.8v-51.5L50.7,104l-24,71.5H0.8L0,174.8
			C24.4,104.7,38,66.1,40.9,59.2C45.9,48.7,54.7,43.5,67.2,43.5z M53.8,95.8H70V70.6c-6.4,0-10.5,4.5-12.2,13.4L53.8,95.8z"/>
		<path class="st0" d="M107.7,43.5h25.5l0.8,0.8v130.5l-0.8,0.8h-25.5l-0.8-0.8V44.3L107.7,43.5z"/>
		<path class="st0" d="M144.6,70.4h95.5l0.8,0.8v28.3c0,21.7-13.8,37.6-41.3,47.6c-18.9,7.5-28.3,16.2-28.3,26.3l-0.4,5.4v22.8
			l-0.8,0.8h-25.5l-0.8-0.8V71.2L144.6,70.4z M171,97.5v35.4h0.4c22.1-10,34.1-16.6,36.2-19.7c4.2-4.9,6.3-10.2,6.3-15.7H171z"/>
		<path class="st0" d="M251.5,43.5h25.5l0.8,0.8v22.8c0,12.4,5,20.6,14.9,24.8c4.7,2.7,14.7,7.5,29.9,14.5
			c16.8,9.4,25.2,22.7,25.2,40.1v28.3l-0.8,0.8h-25.5l-0.8-0.8v-22.4c0-13.4-5.5-22.3-16.5-26.7L278.3,113h-0.4v61.7l-0.8,0.8h-25.5
			l-0.8-0.8V44.3L251.5,43.5z"/>
		<path class="st0" d="M454,70.6l0.8,0.8v103.4l-0.8,0.8h-95.5l-0.8-0.8v-28.3c0-22.2,14.4-38.3,43.2-48.3
			c17.8-7.3,26.7-16.3,26.7-27.1l0.4-0.4H454z M384.8,148.4h42.8V113h-0.4c-21.5,9.7-33.5,16.2-36.2,19.7
			C386.9,137.6,384.8,142.9,384.8,148.4z"/>
		<path class="st0" d="M503.1,43.5h58.2v0.4l-26.7,26.7h-26.7c-10.7,0-16.1,5.1-16.1,15.3v47.2c0,10.2,5.4,15.3,16.1,15.3h26.7
			l26.7,26.7v0.4h-58.2c-16,0-28.2-8.8-36.6-26.3c-1.3-4.5-2-8.6-2-12.2V82c0-16,8.8-28.2,26.3-36.6
			C495.4,44.1,499.5,43.5,503.1,43.5z"/>
		<path class="st0" d="M587.2,70.6h20c16,0,28.2,8.8,36.6,26.3c1.3,4.5,2,8.6,2,12.2V137c0,16-8.8,28.2-26.3,36.6
			c-4.5,1.3-8.6,2-12.2,2h-20c-16,0-28.2-8.8-36.6-26.3c-1.3-4.5-2-8.6-2-12.2v-27.9c0-16,8.8-28.2,26.3-36.6
			C579.5,71.3,583.6,70.6,587.2,70.6z M575.8,113v20c0,10.2,5.1,15.3,15.3,15.3h12.2c10.2,0,15.3-5.1,15.3-15.3v-20
			c0-10.2-5.1-15.3-15.3-15.3h-12.2C580.9,97.7,575.8,102.8,575.8,113z"/>
		<path class="st0" d="M694.1,70.6h20c16,0,28.2,8.8,36.6,26.3c1.3,4.5,2,8.6,2,12.2V137c0,16-8.8,28.2-26.3,36.6
			c-4.5,1.3-8.6,2-12.2,2h-20c-16,0-28.2-8.8-36.6-26.3c-1.3-4.5-2-8.6-2-12.2v-27.9c0-16,8.8-28.2,26.3-36.6
			C686.4,71.3,690.5,70.6,694.1,70.6z M682.7,113v20c0,10.2,5.1,15.3,15.3,15.3h12.2c10.2,0,15.3-5.1,15.3-15.3v-20
			c0-10.2-5.1-15.3-15.3-15.3H698C687.8,97.7,682.7,102.8,682.7,113z"/>
		<path class="st0" d="M801,70.6h20c16,0,28.2,8.8,36.6,26.3c1.3,4.5,2,8.6,2,12.2v65.6l-0.8,0.8h-25.5l-0.8-0.8V113
			c0-10.2-5.1-15.3-15.3-15.3h-12.2c-10.2,0-15.3,5.1-15.3,15.3v61.7l-0.8,0.8h-25.5l-0.8-0.8v-65.6c0-16,8.8-28.2,26.3-36.6
			C793.3,71.3,797.4,70.6,801,70.6z"/>
	</g>
	<g>
		<linearGradient id="SVGID_1_" gradientUnits="userSpaceOnUse" x1="352.9094" y1="27.5756" x2="352.9094" y2="123.1912">
			<stop  offset="0" style="stop-color:#C31432"/>
			<stop  offset="1" style="stop-color:#93291E"/>
		</linearGradient>
		<path class="st1" d="M350,118.1c1,1.6,2,3.3,2.8,5.1c1.5-3.1,3.3-6,5.4-8.8V33.3c0-3.1-2.4-5.7-5.3-5.7c-2.9,0-5.3,2.5-5.3,5.7
			v81.3C348.4,115.7,349.3,116.9,350,118.1z"/>
		
			<linearGradient id="SVGID_00000125573044137183206910000004770598101031721387_" gradientUnits="userSpaceOnUse" x1="337.9812" y1="15.8337" x2="337.9812" y2="109.5527">
			<stop  offset="0" style="stop-color:#C31432"/>
			<stop  offset="1" style="stop-color:#93291E"/>
		</linearGradient>
		<path style="fill:url(#SVGID_00000125573044137183206910000004770598101031721387_);" d="M343.3,109.6v-88c0-3.1-2.4-5.7-5.3-5.7
			c-2.9,0-5.3,2.5-5.3,5.7v79.2C336.7,103.4,340.2,106.4,343.3,109.6z"/>
		
			<linearGradient id="SVGID_00000106121496331116939450000011678222730738232706_" gradientUnits="userSpaceOnUse" x1="293.1962" y1="29.7105" x2="293.1962" y2="83.5581">
			<stop  offset="0" style="stop-color:#C31432"/>
			<stop  offset="1" style="stop-color:#93291E"/>
		</linearGradient>
		<path style="fill:url(#SVGID_00000106121496331116939450000011678222730738232706_);" d="M287.9,67.1c0,10.5,4.4,13.7,8.8,15.5
			l0.6,0.2l0.5,0.3c0.2,0.1,0.5,0.3,0.8,0.4V35.4c0-3.1-2.4-5.7-5.3-5.7c-2.9,0-5.3,2.5-5.3,5.7v4.7v4.1V67.1z"/>
		
			<linearGradient id="SVGID_00000147933506510547828600000009091559282926521488_" gradientUnits="userSpaceOnUse" x1="308.1245" y1="13.343" x2="308.1245" y2="91.0087">
			<stop  offset="0" style="stop-color:#C31432"/>
			<stop  offset="1" style="stop-color:#93291E"/>
		</linearGradient>
		<path style="fill:url(#SVGID_00000147933506510547828600000009091559282926521488_);" d="M313.4,91V19c0-3.1-2.4-5.7-5.3-5.7
			c-2.9,0-5.3,2.5-5.3,5.7v66.8C305.6,87.2,309.2,89,313.4,91z"/>
		
			<linearGradient id="SVGID_00000004516249996469382420000015535320999042075557_" gradientUnits="userSpaceOnUse" x1="323.0528" y1="0" x2="323.0528" y2="98.1058">
			<stop  offset="0" style="stop-color:#C31432"/>
			<stop  offset="1" style="stop-color:#93291E"/>
		</linearGradient>
		<path style="fill:url(#SVGID_00000004516249996469382420000015535320999042075557_);" d="M326.9,97.3l0.4,0.2l0.3,0.2
			c0.3,0.2,0.5,0.3,0.8,0.5V5.7c0-3.1-2.4-5.7-5.3-5.7c-2.9,0-5.3,2.5-5.3,5.7V93C320.5,94.3,323.6,95.8,326.9,97.3z"/>
		
			<linearGradient id="SVGID_00000158717097527025541780000013984519352542704551_" gradientUnits="userSpaceOnUse" x1="397.6945" y1="13.343" x2="397.6945" y2="90.6163">
			<stop  offset="0" style="stop-color:#C31432"/>
			<stop  offset="1" style="stop-color:#93291E"/>
		</linearGradient>
		<path style="fill:url(#SVGID_00000158717097527025541780000013984519352542704551_);" d="M397.3,88.8c1.9-0.8,3.8-1.6,5.7-2.6V19
			c0-3.1-2.4-5.7-5.3-5.7c-2.9,0-5.3,2.5-5.3,5.7v71.6C394,90,395.6,89.4,397.3,88.8z"/>
		
			<linearGradient id="SVGID_00000111175512714585245300000002711981638569734283_" gradientUnits="userSpaceOnUse" x1="412.6228" y1="29.7105" x2="412.6228" y2="83.8421">
			<stop  offset="0" style="stop-color:#C31432"/>
			<stop  offset="1" style="stop-color:#93291E"/>
		</linearGradient>
		<path style="fill:url(#SVGID_00000111175512714585245300000002711981638569734283_);" d="M417.6,71v-4.1l0.3-0.3V35.4
			c0-3.1-2.4-5.7-5.3-5.7c-2.9,0-5.3,2.5-5.3,5.7v48.4C413,80.4,417.6,76,417.6,71z"/>
		
			<linearGradient id="SVGID_00000149364348412792534660000001135346138031432890_" gradientUnits="userSpaceOnUse" x1="367.8378" y1="15.8337" x2="367.8378" y2="109.4354">
			<stop  offset="0" style="stop-color:#C31432"/>
			<stop  offset="1" style="stop-color:#93291E"/>
		</linearGradient>
		<path style="fill:url(#SVGID_00000149364348412792534660000001135346138031432890_);" d="M373.2,100.6V21.5c0-3.1-2.4-5.7-5.3-5.7
			c-2.9,0-5.3,2.5-5.3,5.7v87.9C365.6,106.3,369.1,103.3,373.2,100.6z"/>
		
			<linearGradient id="SVGID_00000027564743775833362650000016701381517257139090_" gradientUnits="userSpaceOnUse" x1="382.7661" y1="0" x2="382.7661" y2="97.8593">
			<stop  offset="0" style="stop-color:#C31432"/>
			<stop  offset="1" style="stop-color:#93291E"/>
		</linearGradient>
		<path style="fill:url(#SVGID_00000027564743775833362650000016701381517257139090_);" d="M388.1,92.4V4.7c0-2.6-2.1-4.7-4.7-4.7
			h-1.2c-2.6,0-4.7,2.1-4.7,4.7v93.1C380.7,95.9,384.3,94.1,388.1,92.4z"/>
	</g>
</g>
</svg>
